<?xml version="1.0" standalone="no"?><!-- Generator: Gravit.io --><svg xmlns="http://www.w3.org/2000/svg" xmlns:xlink="http://www.w3.org/1999/xlink" style="isolation:isolate" viewBox="824 402.099 200 250.901" width="200" height="250.901"><defs><clipPath id="_clipPath_CRcuIXizs7musWR8qddEtCwwws9dlsOl"><rect x="824" y="402.099" width="200" height="250.901"/></clipPath></defs><g clip-path="url(#_clipPath_CRcuIXizs7musWR8qddEtCwwws9dlsOl)"><g><g><g><path d=" M 900 653 L 962 631 L 957 565 L 896 559 L 900 653 Z " fill="rgb(0,0,0)" fill-opacity="0.24"/><path d=" M 834 543 L 1013 543 L 1013 653 L 948 653 L 948 604 L 924 579 L 924 579 L 899.937 604 L 899.813 653 L 834 653 L 834 543 Z " fill="rgb(248,201,159)"/><path d=" M 895 542.5 L 834 613 L 834 568 L 863.75 528 L 895 542.5 Z " fill="rgb(0,0,0)" fill-opacity="0.2"/><path d=" M 954 433 L 1024 493 L 1024 603 L 954 543 L 954 433 Z " fill="rgb(117,82,68)"/><path d=" M 824 493 L 824 603 L 895 543 L 895 433 L 824 493 Z " fill="rgb(162,113,94)"/></g></g><g><path d=" M 924.301 544.703 L 894.222 562.75 L 894.222 508.609 L 954.379 508.609 L 954.379 562.75 L 924.301 544.703 Z " fill="rgb(248,201,159)"/><clipPath id="_clipPath_fhcPNonqwhZQxeqoo1HtlMOluKFu6Lbr"><path d=" M 924.301 544.703 L 894.222 562.75 L 894.222 508.609 L 954.379 508.609 L 954.379 562.75 L 924.301 544.703 Z " fill="rgb(248,201,159)"/></clipPath><g clip-path="url(#_clipPath_fhcPNonqwhZQxeqoo1HtlMOluKFu6Lbr)"><path d=" M 933.324 514.625 L 924.301 511.617 L 894.222 535.68 L 894.222 505.602 L 930.316 502.594 L 933.324 514.625 Z " fill="rgb(0,0,0)" fill-opacity="0.2"/></g><g><path d=" M 924.301 402.099 L 963.601 425.68 L 963.601 535.68 L 924.301 512.099 L 924.301 402.099 Z " fill="rgb(117,82,68)"/><path d=" M 885 425.68 L 885 535.68 L 924.301 512.099 L 924.301 402.099 L 885 425.68 Z " fill="rgb(162,113,94)"/></g></g></g></g></svg>