<?xml version="1.0" standalone="no"?><!-- Generator: Gravit.io --><svg xmlns="http://www.w3.org/2000/svg" xmlns:xlink="http://www.w3.org/1999/xlink" style="isolation:isolate" viewBox="1260 498 140 193" width="140" height="193"><defs><clipPath id="_clipPath_BERIYjiqPbjXjElN7NqYbB6DDRmpGZpY"><rect x="1260" y="498" width="140" height="193"/></clipPath></defs><g clip-path="url(#_clipPath_BERIYjiqPbjXjElN7NqYbB6DDRmpGZpY)"><g><g><path d="M 1386 663.833 L 1386 663.833 C 1388.76 663.833 1391 666.074 1391 668.833 L 1391 686 C 1391 688.76 1388.76 691 1386 691 L 1386 691 C 1383.24 691 1381 688.76 1381 686 L 1381 668.833 C 1381 666.074 1383.24 663.833 1386 663.833 Z" style="stroke:none;fill:#F8C99F;stroke-miterlimit:10;"/><path d="M 1274 663.833 L 1274 663.833 C 1276.76 663.833 1279 666.074 1279 668.833 L 1279 686 C 1279 688.76 1276.76 691 1274 691 L 1274 691 C 1271.24 691 1269 688.76 1269 686 L 1269 668.833 C 1269 666.074 1271.24 663.833 1274 663.833 Z" style="stroke:none;fill:#F8C99F;stroke-miterlimit:10;"/></g><path d=" M 1260 570 L 1260 670 C 1260 675.519 1264.481 680 1270 680 L 1390 680 C 1395.519 680 1400 675.519 1400 670 L 1400 570 L 1260 570 Z  M 1295 605 L 1295 640 C 1295 642.76 1297.24 645 1300 645 L 1360 645 C 1362.76 645 1365 642.76 1365 640 L 1365 605 L 1295 605 Z " fill-rule="evenodd" fill="rgb(208,168,132)"/><clipPath id="_clipPath_1IuPeSsWBWTTdtKlXnfoqDxmzznQFaW8"><path d=" M 1260 570 L 1260 670 C 1260 675.519 1264.481 680 1270 680 L 1390 680 C 1395.519 680 1400 675.519 1400 670 L 1400 570 L 1260 570 Z  M 1295 605 L 1295 640 C 1295 642.76 1297.24 645 1300 645 L 1360 645 C 1362.76 645 1365 642.76 1365 640 L 1365 605 L 1295 605 Z " fill-rule="evenodd" fill="rgb(208,168,132)"/></clipPath><g clip-path="url(#_clipPath_1IuPeSsWBWTTdtKlXnfoqDxmzznQFaW8)"><path d=" M 1393.5 550.72 C 1391.003 548.412 1387.665 547 1384 547 L 1384 547 C 1380.571 547 1377.429 548.235 1375 550.292 L 1375 550.292 C 1372.571 548.235 1369.429 547 1366 547 L 1366 547 C 1362.335 547 1358.997 548.412 1356.5 550.72 C 1354.003 548.412 1350.665 547 1347 547 L 1347 547 C 1343.571 547 1340.429 548.235 1338 550.292 L 1338 550.292 C 1335.571 548.235 1332.429 547 1329 547 L 1329 547 C 1325.335 547 1321.997 548.412 1319.5 550.72 L 1319.5 550.72 C 1317.003 548.412 1313.665 547 1310 547 L 1310 547 C 1306.335 547 1302.997 548.412 1300.5 550.72 L 1300.5 550.72 L 1300.5 550.72 C 1298.003 548.412 1294.665 547 1291 547 L 1291 547 C 1283.273 547 1277 553.273 1277 561 L 1277 643 C 1277 650.727 1283.273 657 1291 657 L 1291 657 C 1294.665 657 1298.003 655.588 1300.5 653.28 C 1302.997 655.588 1306.335 657 1310 657 L 1310 657 C 1313.665 657 1317.003 655.588 1319.5 653.28 C 1321.997 655.588 1325.335 657 1329 657 L 1329 657 C 1332.429 657 1335.571 655.765 1338 653.708 C 1340.429 655.765 1343.571 657 1347 657 L 1347 657 C 1350.665 657 1354.003 655.588 1356.5 653.28 C 1358.997 655.588 1362.335 657 1366 657 L 1366 657 C 1369.429 657 1372.571 655.765 1375 653.708 C 1377.429 655.765 1380.571 657 1384 657 L 1384 657 C 1387.665 657 1391.003 655.588 1393.5 653.28 C 1395.997 655.588 1399.335 657 1403 657 L 1403 657 C 1410.727 657 1417 650.727 1417 643 L 1417 561 C 1417 553.273 1410.727 547 1403 547 L 1403 547 C 1399.335 547 1395.997 548.412 1393.5 550.72 Z " fill-rule="evenodd" fill="rgb(106,73,60)" fill-opacity="0.5"/></g><g><path d="M 1274 571 L 1274 571 C 1276.76 571 1279 573.24 1279 576 L 1279 666 C 1279 668.76 1276.76 671 1274 671 L 1274 671 C 1271.24 671 1269 668.76 1269 666 L 1269 576 C 1269 573.24 1271.24 571 1274 571 Z" style="stroke:none;fill:#F8C99F;stroke-miterlimit:10;"/><path d="M 1386 571 L 1386 571 C 1388.76 571 1391 573.24 1391 576 L 1391 666 C 1391 668.76 1388.76 671 1386 671 L 1386 671 C 1383.24 671 1381 668.76 1381 666 L 1381 576 C 1381 573.24 1383.24 571 1386 571 Z" style="stroke:none;fill:#F8C99F;stroke-miterlimit:10;"/></g><g><path d=" M 1353 512 L 1353 594 C 1353 601.727 1359.273 608 1367 608 L 1367 608 C 1374.727 608 1381 601.727 1381 594 L 1381 512 C 1381 504.273 1374.727 498 1367 498 L 1367 498 C 1359.273 498 1353 504.273 1353 512 Z " fill="rgb(106,73,60)" fill-opacity="0.5"/><path d=" M 1316 512 L 1316 594 C 1316 601.727 1322.273 608 1330 608 L 1330 608 C 1337.727 608 1344 601.727 1344 594 L 1344 512 C 1344 504.273 1337.727 498 1330 498 L 1330 498 C 1322.273 498 1316 504.273 1316 512 Z " fill="rgb(106,73,60)" fill-opacity="0.5"/><path d=" M 1279 512 L 1279 594 C 1279 601.727 1285.273 608 1293 608 L 1293 608 C 1300.727 608 1307 601.727 1307 594 L 1307 512 C 1307 504.273 1300.727 498 1293 498 L 1293 498 C 1285.273 498 1279 504.273 1279 512 Z " fill="rgb(106,73,60)" fill-opacity="0.5"/><path d=" M 1260 512 L 1260 594 C 1260 601.727 1266.273 608 1274 608 L 1274 608 C 1281.727 608 1288 601.727 1288 594 L 1288 512 C 1288 504.273 1281.727 498 1274 498 L 1274 498 C 1266.273 498 1260 504.273 1260 512 Z " fill="rgb(142,98,81)"/><path d=" M 1298 512 L 1298 594 C 1298 601.727 1304.273 608 1312 608 L 1312 608 C 1319.727 608 1326 601.727 1326 594 L 1326 512 C 1326 504.273 1319.727 498 1312 498 L 1312 498 C 1304.273 498 1298 504.273 1298 512 Z " fill="rgb(142,98,81)"/><path d=" M 1335 512 L 1335 594 C 1335 601.727 1341.273 608 1349 608 L 1349 608 C 1356.727 608 1363 601.727 1363 594 L 1363 512 C 1363 504.273 1356.727 498 1349 498 L 1349 498 C 1341.273 498 1335 504.273 1335 512 Z " fill="rgb(142,98,81)"/><path d=" M 1372 512 L 1372 594 C 1372 601.727 1378.273 608 1386 608 L 1386 608 C 1393.727 608 1400 601.727 1400 594 L 1400 512 C 1400 504.273 1393.727 498 1386 498 L 1386 498 C 1378.273 498 1372 504.273 1372 512 Z " fill="rgb(142,98,81)"/></g></g></g></svg>