<?xml version="1.0" standalone="no"?><!-- Generator: Gravit.io --><svg xmlns="http://www.w3.org/2000/svg" xmlns:xlink="http://www.w3.org/1999/xlink" style="isolation:isolate" viewBox="830 480 200 220" width="200" height="220"><defs><clipPath id="_clipPath_bLZbyQ22yftk7ewqw4cNVBz5eBjwfNAp"><rect x="830" y="480" width="200" height="220"/></clipPath></defs><g clip-path="url(#_clipPath_bLZbyQ22yftk7ewqw4cNVBz5eBjwfNAp)"><g><g><g><path d=" M 906 700 L 968 678 L 963 612 L 902 606 L 906 700 Z " fill="rgb(0,0,0)" fill-opacity="0.24"/><path d=" M 840 590 L 1020 590 L 1020 680 L 990 700 L 954.637 700 L 936.638 634.248 L 923.568 634.303 L 906.18 700 L 870 700 L 840 680 L 840 590 Z " fill="rgb(248,201,159)"/><clipPath id="_clipPath_BtCSSjQA9ZD3ld7ExU3KJyACX9S0Dcye"><path d=" M 840 590 L 1020 590 L 1020 680 L 990 700 L 954.637 700 L 936.638 634.248 L 923.568 634.303 L 906.18 700 L 870 700 L 840 680 L 840 590 Z " fill="rgb(248,201,159)"/></clipPath><g clip-path="url(#_clipPath_BtCSSjQA9ZD3ld7ExU3KJyACX9S0Dcye)"><rect x="840" y="590" width="30" height="110" transform="matrix(1,0,0,1,0,0)" fill="rgb(255,255,255)" fill-opacity="0.2"/><rect x="990" y="590" width="30" height="110" transform="matrix(1,0,0,1,0,0)" fill="rgb(0,0,0)" fill-opacity="0.2"/></g><path d=" M 980 590 L 906 595 L 870.122 630 L 840 646 L 840 615 L 869.75 575 L 980 590 Z " fill="rgb(0,0,0)" fill-opacity="0.2"/><path d=" M 960 480 L 1000 515 L 1030 555 L 1030 635 L 1000 625 L 960 590 L 960 480 Z " fill="rgb(104,148,189)"/><path d=" M 860 515 L 830 555 L 830 635 L 860 625 L 900 590 L 900 480 L 860 515 Z " fill="rgb(139,195,247)"/></g></g><rect x="900" y="480" width="60" height="110" transform="matrix(1,0,0,1,0,0)" fill="rgb(129,177,223)"/></g></g></svg>