<?xml version="1.0" standalone="no"?><!-- Generator: Gravit.io --><svg xmlns="http://www.w3.org/2000/svg" xmlns:xlink="http://www.w3.org/1999/xlink" style="isolation:isolate" viewBox="836 441.5 200 270" width="200" height="270"><defs><clipPath id="_clipPath_Zwal2AkZLCY1de4CdIItrIaROcS4HAui"><rect x="836" y="441.5" width="200" height="270"/></clipPath></defs><g clip-path="url(#_clipPath_Zwal2AkZLCY1de4CdIItrIaROcS4HAui)"><g><g><g><path d=" M 846 601.5 L 1026 601.5 L 1026 711.5 L 846 711.5 L 846 601.5 Z " fill="rgb(248,201,159)"/><clipPath id="_clipPath_p0RtZywsU2E7HSBLoPGLnA6ij3lEJ8Gm"><path d=" M 846 601.5 L 1026 601.5 L 1026 711.5 L 846 711.5 L 846 601.5 Z " fill="rgb(248,201,159)"/></clipPath><g clip-path="url(#_clipPath_p0RtZywsU2E7HSBLoPGLnA6ij3lEJ8Gm)"><path d=" M 971 621.5 L 936 606.5 L 846 671.5 L 846 626.5 L 951 586.5 L 971 621.5 Z " fill="rgb(0,0,0)" fill-opacity="0.2"/></g><path d=" M 936 491.5 L 1036 551.5 L 1036 661.5 L 936 601.5 L 936 491.5 Z " fill="rgb(117,82,68)"/><path d=" M 836 551.5 L 836 661.5 L 936 601.5 L 936 491.5 L 836 551.5 Z " fill="rgb(162,113,94)"/></g></g><g><path d=" M 936 571.5 L 886 601.5 L 886 511.5 L 986 511.5 L 986 601.5 L 936 571.5 Z " fill="rgb(248,201,159)"/><clipPath id="_clipPath_Vs1RvzjWASAcuq7Oh8HIno9UQKEQVhZH"><path d=" M 936 571.5 L 886 601.5 L 886 511.5 L 986 511.5 L 986 601.5 L 936 571.5 Z " fill="rgb(248,201,159)"/></clipPath><g clip-path="url(#_clipPath_Vs1RvzjWASAcuq7Oh8HIno9UQKEQVhZH)"><path d=" M 951 521.5 L 936 516.5 L 886 556.5 L 886 506.5 L 946 501.5 L 951 521.5 Z " fill="rgb(0,0,0)" fill-opacity="0.2"/></g><g><path d=" M 936 441.5 L 1001.331 480.699 L 1001.331 552.563 L 936 513.364 L 936 441.5 Z " fill="rgb(117,82,68)"/><path d=" M 870.669 480.699 L 870.669 552.563 L 936 513.364 L 936 441.5 L 870.669 480.699 Z " fill="rgb(162,113,94)"/></g></g></g></g></svg>