<?xml version="1.0" standalone="no"?><!-- Generator: Gravit.io --><svg xmlns="http://www.w3.org/2000/svg" xmlns:xlink="http://www.w3.org/1999/xlink" style="isolation:isolate" viewBox="836 466.5 200 220" width="200" height="220"><defs><clipPath id="_clipPath_RMHNW0aqq5W1StFEhOBYsfAZuKdEKEFF"><rect x="836" y="466.5" width="200" height="220"/></clipPath></defs><g clip-path="url(#_clipPath_RMHNW0aqq5W1StFEhOBYsfAZuKdEKEFF)"><clipPath id="_clipPath_AWuLuC13PNXuftQw9EHegnFI7tezszsr"><rect x="836" y="466.5" width="200" height="220" transform="matrix(1,0,0,1,0,0)" fill="rgb(255,255,255)"/></clipPath><g clip-path="url(#_clipPath_AWuLuC13PNXuftQw9EHegnFI7tezszsr)"><g><g><path d=" M 926 686.5 L 964 672.5 L 932.667 601.833 L 926 686.5 Z " fill="rgb(0,0,0)" fill-opacity="0.24"/><path d=" M 936 617.75 L 956 686.5 L 1026 686.5 L 1026 596.5 L 932.875 574.125 L 932.968 577.174 L 846 596.5 Q 846 636.13 846 676.5 Q 846 685.033 846 686.5 L 857.333 686.5 L 926 686.5 L 936 631.5 L 936 617.75 Z " fill="rgb(248,201,159)"/><clipPath id="_clipPath_AXda1Jcq2WpSFS0DoUyQ0I5f9nGwCr7N"><path d=" M 936 617.75 L 956 686.5 L 1026 686.5 L 1026 596.5 L 932.875 574.125 L 932.968 577.174 L 846 596.5 Q 846 636.13 846 676.5 Q 846 685.033 846 686.5 L 857.333 686.5 L 926 686.5 L 936 631.5 L 936 617.75 Z " fill="rgb(255,255,255)"/></clipPath><g clip-path="url(#_clipPath_AXda1Jcq2WpSFS0DoUyQ0I5f9nGwCr7N)"><g><path d=" M 990.25 594 L 935.875 582 L 841.75 632.25 L 843.25 588.75 L 948.625 538.875 L 990.25 594 Z " fill="rgb(0,0,0)" fill-opacity="0.13"/></g></g><line x1="936" y1="466.727" x2="936" y2="576.5" vector-effect="non-scaling-stroke" stroke-width="1" stroke="rgb(73,128,155)" stroke-linejoin="miter" stroke-linecap="butt" stroke-miterlimit="3"/><path d=" M 936 466.5 L 1017.5 499.1 L 1036 516.5 L 1036 646.5 L 1018.45 609.48 L 936 576.5 L 936 466.5 Z " fill="rgb(117,82,68)"/><path d=" M 852.5 499.9 L 836 516.5 L 836 646.5 L 851.4 610.34 L 936 576.5 L 936 466.5 L 852.5 499.9 Z " fill="rgb(162,113,94)"/></g></g></g></g></svg>